<?xml version="1.0" encoding="utf-8"?>
<!-- Generator: Adobe Illustrator 26.5.0, SVG Export Plug-In . SVG Version: 6.00 Build 0)  -->
<svg version="1.1" id="Calque_1" xmlns="http://www.w3.org/2000/svg" xmlns:xlink="http://www.w3.org/1999/xlink" x="0px" y="0px"
	 viewBox="0 0 1400 196" style="enable-background:new 0 0 1400 196;" xml:space="preserve">
<style type="text/css">
	.st0{fill:#FFFFFF;}
</style>
<g>
	<g>
		<g>
			<path d="M78.28,190.02c-12.87-0.14-23-2.94-30.41-8.39c-7.41-5.45-11.12-13.78-11.12-24.96v-30.83c0-7.13-2.2-12.2-6.61-15.21
				c-4.4-3.01-10.73-4.51-18.98-4.51V90.8c8.25-0.14,14.58-1.68,18.98-4.61c4.4-2.94,6.61-7.9,6.61-14.89V40.25
				c0-11.19,3.84-19.51,11.54-24.96c7.69-5.45,17.69-8.18,30-8.18v15.1c-7.27,0.14-12.97,1.75-17.1,4.82
				C57.06,30.11,55,35.08,55,41.93v30.21c0,14.4-7.62,22.94-22.86,25.59v1.26C47.38,101.64,55,110.17,55,124.57v30.83
				c0,6.85,2.03,11.78,6.08,14.79c4.05,3.01,9.79,4.58,17.2,4.72V190.02z"/>
		</g>
		<g>
			<path d="M154.58,6.98c12.87,0.14,23,2.94,30.41,8.39c7.41,5.45,11.12,13.78,11.12,24.96v30.83c0,7.13,2.2,12.2,6.61,15.21
				c4.4,3.01,10.73,4.51,18.98,4.51v15.31c-8.25,0.14-14.58,1.68-18.98,4.61c-4.4,2.94-6.61,7.9-6.61,14.89v31.04
				c0,11.19-3.84,19.51-11.54,24.96c-7.69,5.45-17.69,8.18-30,8.18v-15.1c7.27-0.14,12.97-1.75,17.1-4.82
				c4.13-3.08,6.19-8.04,6.19-14.89v-30.21c0-14.4,7.62-22.94,22.86-25.59v-1.26c-15.24-2.66-22.86-11.19-22.86-25.59V41.59
				c0-6.85-2.03-11.78-6.08-14.79c-4.05-3.01-9.79-4.58-17.2-4.72V6.98z"/>
		</g>
		<polygon points="78.28,174.91 78.28,22.21 116.8,93.7 154.58,22.08 154.58,174.79 		"/>
		<rect x="11" y="94.07" class="st0" width="210.87" height="8.76"/>
	</g>
	<g>
		<path d="M277.73,73.14v8.09h0.21c4.11-6.24,10.04-9.36,17.77-9.36c3.4,0,6.49,0.71,9.26,2.13c2.77,1.42,4.72,3.83,5.85,7.24
			c1.84-2.98,4.27-5.28,7.29-6.92c3.01-1.63,6.33-2.45,9.95-2.45c2.77,0,5.27,0.3,7.5,0.9c2.23,0.6,4.15,1.54,5.75,2.82
			c1.6,1.28,2.84,2.93,3.72,4.95c0.89,2.02,1.33,4.45,1.33,7.29v40.33h-9.04V92.08c0-1.7-0.14-3.3-0.43-4.79
			c-0.28-1.49-0.82-2.78-1.6-3.88c-0.78-1.1-1.86-1.97-3.25-2.61c-1.38-0.64-3.18-0.96-5.37-0.96c-4.47,0-7.98,1.28-10.53,3.83
			c-2.55,2.55-3.83,5.96-3.83,10.21v34.26h-9.04V92.08c0-1.77-0.16-3.4-0.48-4.89c-0.32-1.49-0.87-2.78-1.65-3.88
			c-0.78-1.1-1.83-1.95-3.14-2.55c-1.31-0.6-3-0.9-5.05-0.9c-2.63,0-4.88,0.53-6.76,1.6c-1.88,1.06-3.4,2.34-4.58,3.83
			c-1.17,1.49-2.02,3.03-2.55,4.63c-0.53,1.6-0.8,2.93-0.8,3.99v34.26h-9.04V73.14H277.73z"/>
		<path d="M408.71,127.93c-1.56,0.92-3.72,1.38-6.49,1.38c-2.34,0-4.2-0.66-5.59-1.97c-1.38-1.31-2.07-3.46-2.07-6.44
			c-2.48,2.98-5.37,5.13-8.67,6.44c-3.3,1.31-6.86,1.97-10.69,1.97c-2.48,0-4.84-0.28-7.08-0.85c-2.23-0.57-4.17-1.45-5.8-2.66
			c-1.63-1.2-2.93-2.78-3.88-4.73c-0.96-1.95-1.44-4.31-1.44-7.08c0-3.12,0.53-5.67,1.6-7.66c1.06-1.98,2.46-3.6,4.2-4.84
			c1.74-1.24,3.72-2.18,5.96-2.82c2.23-0.64,4.52-1.17,6.86-1.6c2.48-0.5,4.84-0.87,7.08-1.12c2.23-0.25,4.2-0.6,5.91-1.06
			c1.7-0.46,3.05-1.13,4.04-2.02c0.99-0.89,1.49-2.18,1.49-3.88c0-1.99-0.37-3.58-1.12-4.79c-0.74-1.21-1.7-2.13-2.87-2.77
			c-1.17-0.64-2.48-1.06-3.94-1.28c-1.45-0.21-2.89-0.32-4.31-0.32c-3.83,0-7.02,0.73-9.58,2.18c-2.55,1.45-3.94,4.2-4.15,8.25
			h-9.04c0.14-3.4,0.85-6.28,2.13-8.62c1.28-2.34,2.98-4.24,5.11-5.69c2.13-1.45,4.56-2.5,7.29-3.14c2.73-0.64,5.66-0.96,8.78-0.96
			c2.48,0,4.95,0.18,7.39,0.53c2.45,0.35,4.66,1.08,6.65,2.18c1.98,1.1,3.58,2.64,4.79,4.62c1.21,1.98,1.81,4.57,1.81,7.75v28.24
			c0,2.12,0.12,3.68,0.37,4.67c0.25,0.99,1.08,1.49,2.5,1.49c0.78,0,1.7-0.14,2.77-0.42V127.93z M394.03,99.74
			c-1.14,0.85-2.63,1.46-4.47,1.85c-1.85,0.39-3.78,0.71-5.8,0.95c-2.02,0.25-4.06,0.53-6.12,0.85c-2.06,0.32-3.9,0.83-5.53,1.53
			c-1.63,0.71-2.96,1.71-3.99,3.02c-1.03,1.31-1.54,3.09-1.54,5.35c0,1.48,0.3,2.73,0.9,3.76c0.6,1.02,1.38,1.85,2.34,2.49
			c0.96,0.64,2.07,1.09,3.35,1.38c1.28,0.28,2.62,0.42,4.04,0.42c2.98,0,5.53-0.4,7.66-1.22c2.13-0.81,3.87-1.84,5.21-3.07
			c1.35-1.23,2.34-2.58,2.98-4.02c0.64-1.45,0.96-2.81,0.96-4.08V99.74z"/>
		<path d="M412.76,73.14h11.6l13.19,19.26l13.73-19.26h10.85l-18.94,25.32l21.28,29.69h-11.6l-15.32-22.77l-15.32,22.77h-10.96
			l20.64-28.94L412.76,73.14z"/>
		<path d="M472.77,63.24V52.18h9.04v11.07H472.77z M481.81,73.14v55.01h-9.04V73.14H481.81z"/>
		<path d="M504.37,73.14v8.09h0.21c4.11-6.24,10.04-9.36,17.77-9.36c3.4,0,6.49,0.71,9.26,2.13c2.77,1.42,4.72,3.83,5.85,7.24
			c1.84-2.98,4.27-5.28,7.29-6.92c3.01-1.63,6.33-2.45,9.95-2.45c2.77,0,5.27,0.3,7.5,0.9c2.23,0.6,4.15,1.54,5.75,2.82
			c1.6,1.28,2.84,2.93,3.72,4.95c0.89,2.02,1.33,4.45,1.33,7.29v40.33h-9.04V92.08c0-1.7-0.14-3.3-0.43-4.79
			c-0.28-1.49-0.82-2.78-1.6-3.88c-0.78-1.1-1.86-1.97-3.25-2.61c-1.38-0.64-3.18-0.96-5.37-0.96c-4.47,0-7.98,1.28-10.53,3.83
			c-2.55,2.55-3.83,5.96-3.83,10.21v34.26h-9.04V92.08c0-1.77-0.16-3.4-0.48-4.89c-0.32-1.49-0.87-2.78-1.65-3.88
			c-0.78-1.1-1.83-1.95-3.14-2.55c-1.31-0.6-3-0.9-5.05-0.9c-2.63,0-4.88,0.53-6.76,1.6c-1.88,1.06-3.4,2.34-4.58,3.83
			c-1.17,1.49-2.02,3.03-2.55,4.63c-0.53,1.6-0.8,2.93-0.8,3.99v34.26h-9.04V73.14H504.37z"/>
		<path d="M625.56,124.64c-4.11,3.12-9.29,4.68-15.53,4.68c-4.4,0-8.21-0.71-11.44-2.13c-3.23-1.42-5.94-3.41-8.14-5.96
			c-2.2-2.55-3.85-5.6-4.95-9.15c-1.1-3.55-1.72-7.41-1.86-11.6c0-4.18,0.64-8.01,1.92-11.49c1.28-3.48,3.07-6.49,5.37-9.04
			c2.3-2.55,5.04-4.54,8.19-5.96c3.16-1.42,6.61-2.13,10.37-2.13c4.89,0,8.95,1.01,12.18,3.03c3.23,2.02,5.82,4.59,7.77,7.71
			c1.95,3.12,3.3,6.53,4.04,10.21c0.74,3.69,1.05,7.2,0.9,10.53h-41.18c-0.07,2.41,0.21,4.7,0.85,6.86
			c0.64,2.16,1.67,4.08,3.09,5.75c1.42,1.67,3.23,3,5.43,3.99c2.2,0.99,4.79,1.49,7.77,1.49c3.83,0,6.97-0.89,9.42-2.66
			c2.45-1.77,4.06-4.47,4.84-8.09h8.94C632.33,116.87,629.67,121.51,625.56,124.64z M623.38,89.31c-0.82-1.92-1.92-3.56-3.3-4.95
			c-1.38-1.38-3.02-2.48-4.89-3.3c-1.88-0.81-3.96-1.22-6.22-1.22c-2.34,0-4.45,0.41-6.33,1.22c-1.88,0.82-3.49,1.93-4.84,3.35
			c-1.35,1.42-2.41,3.07-3.19,4.95c-0.78,1.88-1.24,3.88-1.38,6.01h31.6C624.67,93.25,624.19,91.23,623.38,89.31z"/>
		<path d="M672.91,52.18h12.13v28.2h0.21c1.49-2.48,3.71-4.56,6.65-6.22c2.94-1.67,6.22-2.5,9.84-2.5c6.03,0,10.78,1.56,14.26,4.68
			c3.47,3.12,5.21,7.8,5.21,14.05v37.77h-12.13V93.57c-0.14-4.33-1.07-7.46-2.77-9.42c-1.7-1.95-4.36-2.93-7.98-2.93
			c-2.06,0-3.9,0.37-5.53,1.12c-1.63,0.74-3.02,1.77-4.15,3.09c-1.14,1.31-2.02,2.86-2.66,4.63c-0.64,1.77-0.96,3.65-0.96,5.64
			v32.45h-12.13V52.18z"/>
		<path d="M734.3,52.18h12.13v11.49H734.3V52.18z M734.3,73.14h12.13v55.01H734.3V73.14z"/>
		<path d="M759.62,73.14h11.49v8.09l0.21,0.21c1.84-3.05,4.26-5.44,7.24-7.18c2.98-1.74,6.28-2.61,9.9-2.61
			c6.03,0,10.78,1.56,14.26,4.68c3.47,3.12,5.21,7.8,5.21,14.05v37.77H795.8V93.57c-0.14-4.33-1.06-7.46-2.77-9.42
			c-1.7-1.95-4.36-2.93-7.98-2.93c-2.06,0-3.9,0.37-5.53,1.12c-1.63,0.74-3.02,1.77-4.15,3.09c-1.14,1.31-2.02,2.86-2.66,4.63
			c-0.64,1.77-0.96,3.65-0.96,5.64v32.45h-12.13V73.14z"/>
		<path d="M872.52,128.15h-11.49v-7.45h-0.21c-1.63,3.19-4.01,5.48-7.13,6.86c-3.12,1.38-6.42,2.08-9.9,2.08
			c-4.33,0-8.1-0.76-11.33-2.29c-3.23-1.52-5.9-3.6-8.03-6.22c-2.13-2.62-3.72-5.73-4.79-9.31c-1.06-3.58-1.6-7.43-1.6-11.54
			c0-4.96,0.67-9.26,2.02-12.87c1.35-3.62,3.14-6.6,5.37-8.94s4.79-4.06,7.66-5.16c2.87-1.1,5.8-1.65,8.78-1.65
			c1.7,0,3.44,0.16,5.21,0.48c1.77,0.32,3.47,0.83,5.11,1.54c1.63,0.71,3.14,1.61,4.52,2.71c1.38,1.1,2.54,2.39,3.46,3.88h0.21
			V52.18h12.13V128.15z M830.17,101.23c0,2.34,0.3,4.65,0.9,6.92c0.6,2.27,1.52,4.29,2.77,6.06c1.24,1.77,2.82,3.19,4.73,4.26
			c1.91,1.06,4.18,1.6,6.81,1.6c2.7,0,5.02-0.57,6.97-1.7c1.95-1.13,3.55-2.62,4.79-4.47c1.24-1.84,2.16-3.92,2.77-6.22
			c0.6-2.3,0.9-4.66,0.9-7.08c0-6.1-1.37-10.85-4.1-14.26c-2.73-3.41-6.44-5.11-11.12-5.11c-2.84,0-5.23,0.59-7.18,1.76
			c-1.95,1.17-3.55,2.7-4.79,4.57c-1.24,1.88-2.13,4.01-2.66,6.38C830.43,96.32,830.17,98.74,830.17,101.23z"/>
		<path d="M895.18,103.78c0,2.13,0.3,4.19,0.9,6.17c0.6,1.99,1.51,3.72,2.71,5.21c1.21,1.49,2.73,2.68,4.58,3.56
			c1.84,0.89,4.04,1.33,6.6,1.33c3.55,0,6.4-0.76,8.57-2.29c2.16-1.52,3.78-3.81,4.84-6.86h11.49c-0.64,2.98-1.74,5.64-3.3,7.98
			c-1.56,2.34-3.44,4.31-5.64,5.91c-2.2,1.6-4.66,2.8-7.39,3.62c-2.73,0.81-5.59,1.22-8.57,1.22c-4.33,0-8.16-0.71-11.49-2.13
			c-3.33-1.42-6.15-3.4-8.46-5.96c-2.31-2.55-4.04-5.6-5.21-9.15c-1.17-3.55-1.76-7.45-1.76-11.7c0-3.9,0.62-7.61,1.86-11.12
			c1.24-3.51,3.01-6.6,5.32-9.26c2.3-2.66,5.09-4.77,8.35-6.33c3.26-1.56,6.95-2.34,11.07-2.34c4.33,0,8.21,0.9,11.65,2.71
			c3.44,1.81,6.29,4.2,8.57,7.18c2.27,2.98,3.92,6.4,4.95,10.27c1.03,3.87,1.29,7.86,0.8,11.97H895.18z M923.48,95.8
			c-0.14-1.91-0.55-3.76-1.22-5.53c-0.68-1.77-1.6-3.31-2.77-4.63c-1.17-1.31-2.59-2.38-4.26-3.19c-1.67-0.81-3.53-1.22-5.59-1.22
			c-2.13,0-4.06,0.37-5.8,1.12c-1.74,0.74-3.23,1.77-4.47,3.09c-1.24,1.31-2.23,2.86-2.98,4.63c-0.75,1.77-1.15,3.69-1.22,5.75
			H923.48z"/>
		<path d="M944.87,73.14h11.39v10.64h0.21c0.35-1.49,1.05-2.94,2.07-4.36c1.03-1.42,2.27-2.71,3.72-3.88
			c1.45-1.17,3.07-2.11,4.84-2.82c1.77-0.71,3.58-1.06,5.43-1.06c1.42,0,2.39,0.04,2.93,0.11c0.53,0.07,1.08,0.14,1.65,0.21v11.7
			c-0.85-0.14-1.72-0.27-2.61-0.37c-0.89-0.11-1.76-0.16-2.61-0.16c-2.06,0-3.99,0.41-5.8,1.22c-1.81,0.82-3.39,2.02-4.73,3.62
			c-1.35,1.6-2.41,3.56-3.19,5.91c-0.78,2.34-1.17,5.04-1.17,8.09v26.17h-12.13V73.14z"/>
		<path d="M991.47,110.48c0.35,3.55,1.7,6.03,4.04,7.45c2.34,1.42,5.14,2.13,8.41,2.13c1.13,0,2.43-0.09,3.88-0.27
			c1.45-0.18,2.82-0.51,4.1-1.01c1.28-0.5,2.32-1.22,3.14-2.18c0.82-0.96,1.19-2.22,1.12-3.78c-0.07-1.56-0.64-2.84-1.7-3.83
			c-1.06-0.99-2.43-1.79-4.1-2.39c-1.67-0.6-3.56-1.12-5.69-1.54c-2.13-0.42-4.29-0.89-6.49-1.38c-2.27-0.49-4.45-1.1-6.54-1.81
			c-2.09-0.71-3.97-1.67-5.64-2.87c-1.67-1.2-3-2.75-3.99-4.63c-0.99-1.88-1.49-4.2-1.49-6.97c0-2.98,0.73-5.48,2.18-7.5
			c1.45-2.02,3.3-3.65,5.53-4.89c2.23-1.24,4.72-2.11,7.45-2.61c2.73-0.5,5.34-0.74,7.82-0.74c2.84,0,5.55,0.3,8.14,0.9
			c2.59,0.6,4.93,1.58,7.02,2.93c2.09,1.35,3.83,3.1,5.21,5.27c1.38,2.16,2.25,4.77,2.61,7.82h-12.66c-0.57-2.91-1.9-4.86-3.99-5.85
			c-2.09-0.99-4.49-1.49-7.18-1.49c-0.85,0-1.86,0.07-3.03,0.21c-1.17,0.14-2.27,0.41-3.3,0.8c-1.03,0.39-1.9,0.96-2.61,1.7
			c-0.71,0.74-1.06,1.72-1.06,2.93c0,1.49,0.51,2.7,1.54,3.62c1.03,0.92,2.38,1.69,4.04,2.29c1.67,0.6,3.56,1.12,5.69,1.54
			c2.13,0.43,4.33,0.89,6.6,1.38c2.2,0.5,4.36,1.1,6.49,1.81c2.13,0.71,4.03,1.67,5.69,2.87c1.67,1.21,3.01,2.73,4.04,4.57
			c1.03,1.85,1.54,4.11,1.54,6.81c0,3.26-0.75,6.03-2.23,8.3c-1.49,2.27-3.42,4.11-5.8,5.53c-2.38,1.42-5.02,2.45-7.93,3.09
			c-2.91,0.64-5.78,0.96-8.62,0.96c-3.48,0-6.69-0.39-9.63-1.17c-2.94-0.78-5.5-1.97-7.66-3.56c-2.16-1.6-3.87-3.58-5.11-5.96
			c-1.24-2.38-1.9-5.2-1.97-8.46H991.47z"/>
		<path d="M1074.68,91.54c-0.5-3.4-1.86-5.97-4.1-7.71c-2.23-1.74-5.05-2.61-8.46-2.61c-1.56,0-3.23,0.27-5,0.8
			c-1.77,0.53-3.4,1.53-4.89,2.98c-1.49,1.45-2.73,3.48-3.72,6.06c-0.99,2.59-1.49,5.98-1.49,10.16c0,2.27,0.27,4.54,0.8,6.81
			c0.53,2.27,1.38,4.29,2.55,6.06c1.17,1.77,2.68,3.21,4.52,4.31c1.84,1.1,4.08,1.65,6.7,1.65c3.55,0,6.47-1.1,8.78-3.3
			c2.3-2.2,3.74-5.28,4.31-9.26h12.13c-1.14,7.17-3.85,12.65-8.14,16.44c-4.29,3.8-9.99,5.69-17.08,5.69
			c-4.33,0-8.14-0.73-11.44-2.18c-3.3-1.45-6.08-3.44-8.35-5.96c-2.27-2.52-3.99-5.51-5.16-8.99c-1.17-3.47-1.76-7.24-1.76-11.28
			c0-4.11,0.57-7.98,1.7-11.6c1.13-3.62,2.84-6.76,5.11-9.42c2.27-2.66,5.09-4.75,8.46-6.28c3.37-1.52,7.32-2.29,11.86-2.29
			c3.19,0,6.22,0.41,9.1,1.22c2.87,0.82,5.43,2.04,7.66,3.67c2.23,1.63,4.06,3.69,5.48,6.17c1.42,2.48,2.27,5.43,2.55,8.83H1074.68z
			"/>
		<path d="M1096.7,52.18h12.13v28.2h0.21c1.49-2.48,3.71-4.56,6.65-6.22c2.94-1.67,6.22-2.5,9.84-2.5c6.03,0,10.78,1.56,14.26,4.68
			c3.47,3.12,5.21,7.8,5.21,14.05v37.77h-12.13V93.57c-0.14-4.33-1.06-7.46-2.77-9.42c-1.7-1.95-4.36-2.93-7.98-2.93
			c-2.06,0-3.9,0.37-5.53,1.12c-1.63,0.74-3.02,1.77-4.15,3.09c-1.14,1.31-2.02,2.86-2.66,4.63c-0.64,1.77-0.96,3.65-0.96,5.64
			v32.45h-12.13V52.18z"/>
		<path d="M1158.1,52.18h12.13v11.49h-12.13V52.18z M1158.1,73.14h12.13v55.01h-12.13V73.14z"/>
		<path d="M1192.89,103.78c0,2.13,0.3,4.19,0.9,6.17c0.6,1.99,1.51,3.72,2.71,5.21c1.21,1.49,2.73,2.68,4.58,3.56
			c1.84,0.89,4.04,1.33,6.6,1.33c3.55,0,6.4-0.76,8.57-2.29c2.16-1.52,3.78-3.81,4.84-6.86h11.49c-0.64,2.98-1.74,5.64-3.3,7.98
			c-1.56,2.34-3.44,4.31-5.64,5.91c-2.2,1.6-4.66,2.8-7.39,3.62c-2.73,0.81-5.59,1.22-8.57,1.22c-4.33,0-8.16-0.71-11.49-2.13
			c-3.33-1.42-6.15-3.4-8.46-5.96c-2.31-2.55-4.04-5.6-5.21-9.15c-1.17-3.55-1.76-7.45-1.76-11.7c0-3.9,0.62-7.61,1.86-11.12
			c1.24-3.51,3.01-6.6,5.32-9.26c2.3-2.66,5.09-4.77,8.35-6.33c3.26-1.56,6.95-2.34,11.07-2.34c4.33,0,8.21,0.9,11.65,2.71
			c3.44,1.81,6.29,4.2,8.57,7.18c2.27,2.98,3.92,6.4,4.95,10.27c1.03,3.87,1.29,7.86,0.8,11.97H1192.89z M1221.19,95.8
			c-0.14-1.91-0.55-3.76-1.22-5.53c-0.68-1.77-1.6-3.31-2.77-4.63c-1.17-1.31-2.59-2.38-4.26-3.19c-1.67-0.81-3.53-1.22-5.59-1.22
			c-2.13,0-4.06,0.37-5.8,1.12c-1.74,0.74-3.23,1.77-4.47,3.09c-1.24,1.31-2.23,2.86-2.98,4.63c-0.75,1.77-1.15,3.69-1.22,5.75
			H1221.19z"/>
		<path d="M1237.05,73.14h9.15V56.64h12.13v16.49h10.96v9.04h-10.96v29.37c0,1.28,0.05,2.38,0.16,3.3c0.11,0.92,0.35,1.7,0.74,2.34
			c0.39,0.64,0.97,1.12,1.76,1.44c0.78,0.32,1.84,0.48,3.19,0.48c0.85,0,1.7-0.02,2.55-0.05c0.85-0.03,1.7-0.16,2.55-0.37v9.36
			c-1.35,0.14-2.66,0.28-3.94,0.42c-1.28,0.14-2.59,0.21-3.94,0.21c-3.19,0-5.76-0.3-7.71-0.9c-1.95-0.6-3.48-1.49-4.58-2.66
			c-1.1-1.17-1.85-2.64-2.23-4.42c-0.39-1.77-0.62-3.79-0.69-6.07V82.18h-9.15V73.14z"/>
		<path d="M1272.48,73.14h9.15V56.64h12.13v16.49h10.96v9.04h-10.96v29.37c0,1.28,0.05,2.38,0.16,3.3c0.11,0.92,0.35,1.7,0.74,2.34
			c0.39,0.64,0.97,1.12,1.76,1.44c0.78,0.32,1.84,0.48,3.19,0.48c0.85,0,1.7-0.02,2.55-0.05c0.85-0.03,1.7-0.16,2.55-0.37v9.36
			c-1.35,0.14-2.66,0.28-3.94,0.42c-1.28,0.14-2.59,0.21-3.94,0.21c-3.19,0-5.76-0.3-7.71-0.9c-1.95-0.6-3.48-1.49-4.58-2.66
			c-1.1-1.17-1.85-2.64-2.23-4.42c-0.39-1.77-0.62-3.79-0.69-6.07V82.18h-9.15V73.14z"/>
		<path d="M1322.91,103.78c0,2.13,0.3,4.19,0.9,6.17c0.6,1.99,1.51,3.72,2.71,5.21c1.21,1.49,2.73,2.68,4.58,3.56
			c1.84,0.89,4.04,1.33,6.6,1.33c3.55,0,6.4-0.76,8.57-2.29c2.16-1.52,3.78-3.81,4.84-6.86h11.49c-0.64,2.98-1.74,5.64-3.3,7.98
			c-1.56,2.34-3.44,4.31-5.64,5.91c-2.2,1.6-4.66,2.8-7.39,3.62c-2.73,0.81-5.59,1.22-8.57,1.22c-4.33,0-8.16-0.71-11.49-2.13
			c-3.33-1.42-6.15-3.4-8.46-5.96c-2.31-2.55-4.04-5.6-5.21-9.15c-1.17-3.55-1.76-7.45-1.76-11.7c0-3.9,0.62-7.61,1.86-11.12
			c1.24-3.51,3.01-6.6,5.32-9.26c2.3-2.66,5.09-4.77,8.35-6.33c3.26-1.56,6.95-2.34,11.07-2.34c4.33,0,8.21,0.9,11.65,2.71
			c3.44,1.81,6.29,4.2,8.57,7.18c2.27,2.98,3.92,6.4,4.95,10.27c1.03,3.87,1.29,7.86,0.8,11.97H1322.91z M1351.22,95.8
			c-0.14-1.91-0.55-3.76-1.22-5.53c-0.68-1.77-1.6-3.31-2.77-4.63c-1.17-1.31-2.59-2.38-4.26-3.19c-1.67-0.81-3.53-1.22-5.59-1.22
			c-2.13,0-4.06,0.37-5.8,1.12c-1.74,0.74-3.23,1.77-4.47,3.09c-1.24,1.31-2.23,2.86-2.98,4.63c-0.75,1.77-1.15,3.69-1.22,5.75
			H1351.22z"/>
		<path d="M1373.56,113.78h14.79v14.36h-14.79V113.78z"/>
	</g>
</g>
</svg>
